# Blender 3.6.5
# www.blender.org
mtllib shellBox.mtl
o torus
v -31.461617 -31.461617 31.461617
v -31.461617 31.461617 31.461617
v -31.461617 -31.461617 -31.461617
v -31.461617 31.461617 -31.461617
v 31.461617 -31.461617 31.461617
v 31.461617 31.461617 31.461617
v 31.461617 -31.461617 -31.461617
v 31.461617 31.461617 -31.461617
v -109.715446 -109.715446 109.715446
v -109.715446 109.715446 109.715446
v -109.715446 -109.715446 -109.715446
v -109.715446 109.715446 -109.715446
v 109.715446 -109.715446 109.715446
v 109.715446 109.715446 109.715446
v 109.715446 -109.715446 -109.715446
v 109.715446 109.715446 -109.715446
vn -0.5774 -0.5774 0.5774
vn -0.5774 0.5774 0.5774
vn -0.5774 0.5774 -0.5774
vn -0.5774 -0.5774 -0.5774
vn 0.5774 0.5774 -0.5774
vn 0.5774 -0.5774 -0.5774
vn 0.5774 0.5774 0.5774
vn 0.5774 -0.5774 0.5774
s 1
usemtl Material.002
f 1//1 2//2 4//3
f 1//1 4//3 3//4
f 3//4 4//3 8//5
f 3//4 8//5 7//6
f 7//6 8//5 6//7
f 7//6 6//7 5//8
f 5//8 6//7 2//2
f 5//8 2//2 1//1
f 3//4 7//6 5//8
f 3//4 5//8 1//1
f 8//5 4//3 2//2
f 8//5 2//2 6//7
f 9//1 10//2 12//3
f 9//1 12//3 11//4
f 11//4 12//3 16//5
f 11//4 16//5 15//6
f 15//6 16//5 14//7
f 15//6 14//7 13//8
f 13//8 14//7 10//2
f 13//8 10//2 9//1
f 11//4 15//6 13//8
f 11//4 13//8 9//1
f 16//5 12//3 10//2
f 16//5 10//2 14//7
